# Blender v2.83.0 OBJ File: ''
# www.blender.org
mtllib circularplane.mtl
o Circle
v 44.999977 -0.000000 0.000000
v -0.000009 45.000008 0.000000
v -45.000023 -0.000019 0.000000
v 44.135323 8.779067 0.000000
v 41.574562 17.220749 0.000000
v 37.416122 25.000658 0.000000
v 31.819788 31.819820 0.000000
v 25.000639 37.416122 0.000000
v 17.220745 41.574585 0.000000
v 8.779056 44.135315 0.000000
v -8.779071 44.135349 0.000000
v -17.220764 41.574585 0.000000
v -25.000671 37.416122 0.000000
v -31.819805 31.819817 0.000000
v -37.416138 25.000654 0.000000
v -41.574604 17.220745 0.000000
v -44.135334 8.779049 0.000000
v -44.135334 -8.779085 0.000000
v -31.819801 -31.819834 0.000000
v -41.574577 -17.220778 0.000000
v -37.416138 -25.000687 0.000000
v -25.000639 -37.416164 0.000000
v -17.220732 -41.574604 0.000000
v -8.779032 -44.135361 0.000000
v 0.000034 -44.999992 0.000000
v 8.779102 -44.135334 0.000000
v 17.220793 -41.574577 0.000000
v 25.000700 -37.416107 0.000000
v 31.819849 -31.819773 0.000000
v 37.416145 -25.000610 0.000000
v 41.574593 -17.220703 0.000000
v 44.135349 -8.778996 0.000000
vt 8.034332 0.417797
vt 0.582206 8.034332
vt -7.034332 0.582202
vt 7.905601 1.889239
vt 7.492283 3.307307
vt 6.810244 4.617495
vt 5.885704 5.769450
vt 4.754194 6.718905
vt 3.459215 7.429355
vt 2.050506 7.873528
vt -0.889234 7.905601
vt -2.307312 7.492276
vt -3.617506 6.810237
vt -4.769450 5.885704
vt -5.718905 4.754194
vt -6.429362 3.459210
vt -6.873521 2.050506
vt -6.905593 -0.889266
vt -4.885700 -4.769454
vt -6.492276 -2.307323
vt -5.810233 -3.617509
vt -3.754176 -5.718913
vt -2.459199 -6.429362
vt -1.050496 -6.873528
vt 0.417803 -7.034332
vt 1.889247 -6.905601
vt 3.307325 -6.492276
vt 4.617498 -5.810244
vt 5.769457 -4.885700
vt 6.718905 -3.754191
vt 7.429362 -2.459206
vt 7.873528 -1.050492
vn 0.0000 0.0000 1.0000
usemtl CircularPlaneMaterial
s 1
f 1/1/1 2/2/1 3/3/1
f 1/1/1 4/4/1 5/5/1
f 5/5/1 6/6/1 1/1/1
f 6/6/1 7/7/1 1/1/1
f 7/7/1 8/8/1 9/9/1
f 9/9/1 10/10/1 7/7/1
f 10/10/1 2/2/1 7/7/1
f 2/2/1 11/11/1 12/12/1
f 12/12/1 13/13/1 14/14/1
f 14/14/1 15/15/1 16/16/1
f 16/16/1 17/17/1 14/14/1
f 17/17/1 3/3/1 14/14/1
f 3/3/1 18/18/1 19/19/1
f 18/18/1 20/20/1 19/19/1
f 20/20/1 21/21/1 19/19/1
f 19/19/1 22/22/1 23/23/1
f 23/23/1 24/24/1 19/19/1
f 24/24/1 25/25/1 19/19/1
f 25/25/1 26/26/1 27/27/1
f 27/27/1 28/28/1 29/29/1
f 29/29/1 30/30/1 31/31/1
f 31/31/1 32/32/1 29/29/1
f 32/32/1 1/1/1 29/29/1
f 2/2/1 12/12/1 3/3/1
f 12/12/1 14/14/1 3/3/1
f 25/25/1 27/27/1 1/1/1
f 27/27/1 29/29/1 1/1/1
f 1/1/1 7/7/1 2/2/1
f 3/3/1 19/19/1 1/1/1
f 19/19/1 25/25/1 1/1/1
