# Blender v2.83.0 OBJ File: ''
# www.blender.org
mtllib cone.mtl
o Cone_Cone.001
v 1.000000 0.000000 -1.414198
v 0.000000 0.000000 0.000000
v 0.707107 -0.707107 -1.414198
v 0.000000 -1.000000 -1.414198
v -0.707107 -0.707107 -1.414198
v -1.000000 0.000000 -1.414259
v -0.707107 0.707107 -1.414259
v 0.000000 1.000000 -1.414198
v 0.707107 0.707107 -1.414198
vt 0.250000 0.490000
vt 0.250000 0.250000
vt 0.419706 0.419706
vt 0.490000 0.250000
vt 0.419706 0.080294
vt 0.250000 0.010000
vt 0.080294 0.080294
vt 0.010000 0.250000
vt 0.080294 0.419706
vt 0.919706 0.080294
vt 0.580294 0.080294
vt 0.580294 0.419706
vt 0.750000 0.490000
vt 0.919706 0.419706
vt 0.990000 0.250000
vt 0.750000 0.010000
vt 0.510000 0.250000
vn 0.7735 -0.3204 0.5469
vn 0.3204 -0.7735 0.5469
vn -0.3204 -0.7735 0.5469
vn -0.7735 -0.3203 0.5469
vn -0.7735 0.3204 0.5469
vn -0.3204 0.7734 0.5469
vn 0.3204 0.7735 0.5469
vn 0.7735 0.3204 0.5469
vn 0.0000 -0.0000 -1.0000
vn 0.0001 -0.0000 -1.0000
vn 0.0000 0.0001 -1.0000
usemtl None
s 1
f 1/1/1 2/2/1 3/3/1
f 3/3/2 2/2/2 4/4/2
f 4/4/3 2/2/3 5/5/3
f 5/5/4 2/2/4 6/6/4
f 6/6/5 2/2/5 7/7/5
f 7/7/6 2/2/6 8/8/6
f 8/8/7 2/2/7 9/9/7
f 9/9/8 2/2/8 1/1/8
f 5/10/9 7/11/10 9/12/9
f 9/12/9 1/13/9 3/14/9
f 3/14/9 4/15/9 5/10/9
f 5/10/9 6/16/10 7/11/10
f 7/11/10 8/17/11 9/12/9
f 9/12/9 3/14/9 5/10/9
