# Blender v2.83.0 OBJ File: ''
# www.blender.org
mtllib cube.mtl
o Cube
v -1.000000 1.000000 1.000000
v -1.000000 1.000000 -1.000000
v 1.000000 1.000000 1.000000
v 1.000000 1.000000 -1.000000
v -1.000000 -1.000000 1.000000
v -1.000000 -1.000000 -1.000000
v 1.000000 -1.000000 1.000000
v 1.000000 -1.000000 -1.000000
v 1.000000 1.000000 1.000000
v 1.000000 1.000000 -1.000000
v 1.000000 -1.000000 1.000000
v 1.000000 -1.000000 -1.000000
v -1.000000 1.000000 1.000000
v -1.000000 1.000000 -1.000000
v -1.000000 -1.000000 1.000000
v -1.000000 -1.000000 -1.000000
v 1.000000 1.000000 -1.000000
v -1.000000 1.000000 -1.000000
v 1.000000 -1.000000 -1.000000
v -1.000000 -1.000000 -1.000000
v 1.000000 1.000000 1.000000
v -1.000000 1.000000 1.000000
v 1.000000 -1.000000 1.000000
v -1.000000 -1.000000 1.000000
vt 0.000000 -0.000000
vt -0.000000 1.000000
vt 1.000000 1.000000
vt 1.000000 0.000000
vt 0.000000 -0.000000
vt 1.000000 1.000000
vt -0.000000 1.000000
vt 1.000000 0.000000
vt 0.000000 -0.000000
vt -0.000000 1.000000
vt 1.000000 1.000000
vt 1.000000 0.000000
vt 0.000000 -0.000000
vt 1.000000 1.000000
vt -0.000000 1.000000
vt 1.000000 0.000000
vt 0.000000 -0.000000
vt -0.000000 1.000000
vt 1.000000 1.000000
vt 1.000000 0.000000
vt 0.000000 -0.000000
vt 1.000000 1.000000
vt -0.000000 1.000000
vt 1.000000 0.000000
vn 0.0000 1.0000 0.0000
vn 0.0000 -1.0000 0.0000
vn 1.0000 0.0000 0.0000
vn -1.0000 -0.0000 0.0000
vn 0.0000 0.0000 -1.0000
vn -0.0000 -0.0000 1.0000
usemtl CubeMaterial
s off
f 2/1/1 1/2/1 3/3/1
f 2/1/1 3/3/1 4/4/1
f 6/5/2 7/6/2 5/7/2
f 6/5/2 8/8/2 7/6/2
f 10/9/3 9/10/3 11/11/3
f 10/9/3 11/11/3 12/12/3
f 14/13/4 15/14/4 13/15/4
f 14/13/4 16/16/4 15/14/4
f 18/17/5 17/18/5 19/19/5
f 18/17/5 19/19/5 20/20/5
f 22/21/6 23/22/6 21/23/6
f 22/21/6 24/24/6 23/22/6
