# Blender v2.83.0 OBJ File: ''
# www.blender.org
mtllib pyramid.mtl
o Cone
v 0.866025 -0.500000 0.000000
v 0.000000 1.000000 0.000000
v -0.000000 0.000000 1.414214
v 0.000019 0.999989 -0.004615
v -0.866007 -0.500010 -0.004614
v 0.865988 -0.499979 0.009229
v -0.866025 -0.500000 0.000000
v 0.866025 -0.500000 0.000000
v -0.000000 0.000000 1.414214
v -0.000000 1.000000 0.000000
v -0.866025 -0.500000 0.000000
v -0.000000 0.000000 1.414214
vt 1.000000 0.000000
vt 0.500000 0.866025
vt 0.000000 0.000000
vt 0.153590 0.300000
vt 0.500000 0.900000
vt 0.846410 0.300000
vt 1.000000 0.000000
vt 0.500000 0.866025
vt 0.000000 0.000000
vt 1.000000 0.000000
vt 0.500000 0.866025
vt 0.000000 0.000000
vn 0.8165 0.4714 0.3333
vn 0.0080 -0.0046 -1.0000
vn 0.0000 -0.9428 0.3333
vn -0.8165 0.4714 0.3333
usemtl PyramidMaterial
s off
f 2/1/1 3/2/1 1/3/1
f 5/4/2 4/5/2 6/6/2
f 8/7/3 9/8/3 7/9/3
f 11/10/4 12/11/4 10/12/4
